<svg width="242" height="79" viewBox="0 0 242 79" fill="none" xmlns="http://www.w3.org/2000/svg">
  <text x="74" y="51" font-family="'Poppins', sans-serif" font-size="29" font-weight="800" fill="white" letter-spacing="0.5">Valo-Clean</text>
  <path d="M53.4116 27.8819L55.6013 25.8089C58.102 23.4395 60.5999 21.0683 63.0952 18.6951C67.6107 14.4028 72.1263 10.1106 76.6419 5.81843C77.144 5.34255 77.109 5.02453 76.5905 4.59275C75.2744 3.48198 73.9477 2.37701 72.7145 1.17918C71.9554 0.440989 71.4661 0.467685 70.7479 1.2349C68.0187 4.14821 65.2393 7.0151 62.4646 9.88663C57.9778 14.5294 53.4863 19.169 48.9902 23.8055C50.5987 25.0125 52.08 26.3783 53.4116 27.8819Z" fill="white"/>
  <path d="M39.1674 33.9904C38.6653 34.5161 38.3406 34.6705 37.6341 34.1494C36.0785 33.0026 34.2474 32.6091 32.3111 32.8088C30.0549 33.0409 28.0766 33.9695 26.256 35.2648C25.059 36.1144 23.9811 37.1045 22.9195 38.1201C20.8992 40.0526 18.4421 40.9893 15.6452 41.074C15.3275 41.0833 14.8919 40.9579 14.7319 41.2818C14.5252 41.7054 15.0075 41.9027 15.2411 42.1418C16.1847 43.1145 17.1797 44.0395 18.1104 45.0238C18.6219 45.5658 19.144 45.7016 19.8785 45.545C21.4072 45.2188 22.8319 44.6164 24.5078 43.819C23.521 45.2803 22.679 46.4155 21.3546 47.0852C21.0323 47.2477 20.5629 47.3777 21.0043 47.8466C21.6828 48.5662 22.3928 49.2557 23.1064 49.9451C23.4392 50.2678 23.7837 50.0821 24.12 49.9149C24.8639 49.5435 25.4584 48.9713 26.1766 48.2343C26.1404 49.3624 25.6966 50.0774 25.1956 50.739C24.7951 51.2671 24.746 51.642 25.2645 52.1388C25.7585 52.6123 26.1252 52.6657 26.6659 52.2212C27.4028 51.5859 28.3404 51.2274 29.3157 51.2079L28.7867 51.6885C26.9462 53.354 26.9333 53.7777 28.6699 55.4978C28.8264 55.6522 28.9922 55.7984 29.137 55.9621C29.5633 56.4264 29.8272 56.3451 30.0818 55.7729C30.6902 54.4033 31.9316 53.657 33.1637 52.8712C32.4976 54.2586 31.9861 55.7142 31.6385 57.2121C31.4703 57.9352 31.5918 58.4622 32.1441 58.9729C33.0586 59.819 33.9146 60.7267 34.8044 61.5984C35.0065 61.7968 35.1992 62.1624 35.4934 62.0626C35.8847 61.9315 35.7048 61.1968C35.727 61.1968C35.8893 58.1128 36.9813 55.4409 39.2538 53.289C40.4859 52.1327 41.5407 50.8031 42.3848 49.3427C44.3701 45.8781 45.0544 42.3891 42.4875 38.878C42.1068 38.3568 42.5798 38.1526 42.8379 37.9042C46.36 34.5591 49.8864 31.2179 53.4172 27.8805C52.0848 26.3768 50.6027 25.0111 48.9935 23.8042L47.7906 25.0461C44.9084 28.0221 42.034 31.0035 39.1674 33.9904Z" fill="white"/>
  <path d="M3.24023 57.8181C4.52568 61.4199 6.53857 64.7223 9.15523 67.5226C11.5997 70.1818 14.5427 72.3416 17.8193 73.8808C11.0984 70.5416 5.89211 64.8055 3.24023 57.8181Z" fill="white"/>
  <path d="M44.4891 71.4597C32.2807 75.0393 21.2495 73.4433 12.6076 63.8271C3.96573 54.2108 3.61538 43.1228 8.67321 31.3105C2.39034 37.4831 -0.226743 48.0372 3.23468 57.8182C5.88655 64.8056 11.0928 70.5417 17.8137 73.8809C27.4354 78.3739 38.3546 76.6236 44.4891 71.4597Z" fill="white"/>
  <path d="M41.5081 75.6079C38.6025 76.8847 35.5078 77.5242 32.3594 78.0384C34.1672 78.5897 36.0006 78.2845 37.7839 78.0442C46.5169 76.8638 53.6009 72.7271 58.8899 65.7584C64.6858 58.1246 66.608 49.4821 64.9346 40.0829C64.0003 34.8099 61.7698 30.0813 58.4823 25.8344C57.93 25.1194 57.5411 25.0718 56.949 25.738C56.3765 26.4051 55.7517 27.0261 55.0805 27.5951C54.2852 28.2451 54.3132 28.7663 54.9217 29.5799C59.1644 35.2614 61.1964 41.5883 60.8157 48.4677C60.7039 51.7404 60.0436 54.9716 58.8619 58.0282C55.9412 66.0486 50.0355 71.852 41.5081 75.6079Z" fill="white"/>
  <path d="M58.8594 58.0269C60.0411 54.9702 60.7014 51.739 60.8132 48.4663C60.7699 49.2498 60.6964 50.0402 60.5913 50.8376C60.2754 53.2889 59.6947 55.6992 58.8594 58.0269Z" fill="white"/>
  <path d="M11.0165 25.1926C18.0164 19.1837 26.1667 16.7811 35.3656 18.0103C39.7391 18.5906 43.7435 20.1587 47.435 22.53C47.9699 22.8782 48.3529 23.021 48.8446 22.4708C49.4775 21.7616 50.1841 21.1174 50.8579 20.4442C51.8692 19.4345 51.8821 19.4136 50.6944 18.6394C43.921 14.2288 36.482 12.2289 28.4649 13.3002C16.0055 14.9589 7.11133 21.584 2.10138 33.1189C0.320426 37.2007 -0.348177 41.6765 0.162788 46.0965C0.254698 45.7912 0.329944 45.4813 0.388184 45.168C1.45908 37.208 4.8913 30.4551 11.0165 25.1926Z" fill="white"/>
  <path d="M15.9992 34.9514C16.2176 33.9741 16.791 33.4715 17.7439 33.222C18.496 33.0258 19.31 32.9341 20.1742 32.3306C19.2224 32.0335 18.4773 31.575C16.7209 31.3568 16.2141 30.7846 15.9899 29.8282C15.8054 29.0401 15.6395 28.2299 15.1093 27.2747C14.8291 28.2032 14.5616 28.881 14.4273 29.5821C14.2008 30.7637 13.576 31.445 12.3521 31.6458C11.6806 31.7561 11.0395 32.0451 10.3843 32.254C10.3843 32.3561 10.3843 32.4583 10.375 32.5592C10.9589 32.7368 11.5346 32.9736 12.1337 33.0804C13.4896 33.3207 14.2627 34.0589 14.4811 35.4285C14.5815 36.0575 14.8314 36.6623 15.0136 37.2774C15.4814 36.5679 15.8154 35.7798 15.9992 34.9514Z" fill="white"/>
  <path d="M49.9928 56.5669C49.7674 55.658 49.4346 54.7771 49.1473 53.8845C48.7084 54.5797 48.3972 55.3468 48.2282 56.1502C48.0063 57.2017 47.468 57.8134 46.3597 57.9945C45.4797 58.1186 44.6324 58.412 43.8652 58.858C44.8532 59.1413 45.5691 59.3943 46.3071 59.5452C47.3512 59.7576 47.9736 60.2869 48.2154 61.3651C48.3835 62.1196 48.5237 62.9216 49.0912 63.8026C49.3937 62.852 49.7137 62.1149 49.8587 61.3466C50.0442 60.2915 50.6327 59.8203 51.6523 59.5928C52.423 59.421 53.2498 59.2724 54.093 58.6735C53.042 58.3578 52.1813 58.0583 51.2984 57.8483C50.572 57.6776 50.1738 57.2981 49.9928 56.5669Z" fill="white"/>
  <path d="M37.6881 30.397C38.0198 28.1348 39.0837 26.7791 41.494 26.4959C39.1245 26.1941 38.0104 24.8535 37.6683 22.6018C37.4183 24.9754 36.1408 26.1361 33.8145 26.4843C36.1559 26.8348 37.4043 28.0605 37.6881 30.397Z" fill="white"/>
  <path d="M54.698 39.4771C54.3699 41.3225 53.4508 42.4229 51.5332 42.727C53.5524 42.9591 54.3652 44.1604 54.7797 45.985C54.8837 43.8958 56.0971 43.038 57.9667 42.6805C56.0211 42.4438 55.0133 41.391 54.698 39.4771Z" fill="white"/>
  <path d="M23.9877 27.3701C24.2925 25.5315 25.437 24.7133 27.1537 24.3384C25.3295 24.0238 24.3159 23.0488 24.1173 21.1465C23.426 21.9659 23.6047 22.8701 23.0499 23.4249C22.4952 23.9797 21.5178 23.7603 20.7832 24.5554C22.6342 24.6819 23.6268 25.5838 23.9877 27.3701Z" fill="white"/>
</svg>
