<svg width="242" height="79" viewBox="0 0 242 79" fill="none" xmlns="http://www.w3.org/2000/svg">
  <!-- Brand Icon -->
  <g transform="translate(10, 12)">
    <!-- Circle outline in theme green -->
    <path d="M27 4C14.2975 4 4 14.2975 4 27C4 39.7025 14.2975 50 27 50C39.7025 50 50 39.7025 50 27C50 14.2975 39.7025 4 27 4ZM27 45.4286C16.8226 45.4286 8.57143 37.1774 8.57143 27C8.57143 16.8226 16.8226 8.57143 27 8.57143C37.1774 8.57143 45.4286 16.8226 45.4286 27C45.4286 37.1774 37.1774 45.4286 27 45.4286Z" fill="#00D084"/>
    <!-- Inner Leaf/Swoosh -->
    <path d="M27 15.4286C27.0504 15.4286 33.8571 23.1429 33.8571 27.5714C33.8571 31.3592 30.7878 34.4286 27 34.4286C23.2122 34.4286 20.1429 31.3592 20.1429 27.5714C20.1429 23.1429 26.9496 15.4286 27 15.4286Z" fill="#FFFFFF"/>
    <!-- Sparkle 1 -->
    <path d="M40.2857 12L42.2857 16L46.2857 18L42.2857 20L40.2857 24L38.2857 20L34.2857 18L38.2857 16L40.2857 12Z" fill="#FFFFFF"/>
    <!-- Sparkle 2 -->
    <path d="M13.7143 34L15.1429 37L18.1429 38.5L15.1429 40L13.7143 43L12.2857 40L9.28571 38.5L12.2857 37L13.7143 34Z" fill="#00D084"/>
  </g>
  
  <!-- Brand Typography -->
  <text x="75" y="49" font-family="'Poppins', sans-serif" font-size="28" font-weight="800" fill="#FFFFFF" letter-spacing="0.5">Nordo <tspan font-weight="300" fill="#00D084">Clean</tspan></text>
</svg>
